HIERARCHY
ROOT Hips
{
    OFFSET 0.0 0.0 0.0
    CHANNELS 6 Xposition Yposition Zposition Zrotation Xrotation Yrotation
    JOINT Spine
    {
        OFFSET 0.0 5.0 0.0
        CHANNELS 3 Zrotation Xrotation Yrotation
        JOINT Chest
        {
            OFFSET 0.0 5.0 0.0
            CHANNELS 3 Zrotation Xrotation Yrotation
            JOINT Neck
            {
                OFFSET 0.0 8.0 0.0
                CHANNELS 3 Zrotation Xrotation Yrotation
                JOINT Head
                {
                    OFFSET 0.0 5.0 0.0
                    CHANNELS 3 Zrotation Xrotation Yrotation
                    End Site
                    {
                        OFFSET 0.0 3.0 0.0
                    }
                }
            }
            JOINT LeftShoulder
            {
                OFFSET -5.0 0.0 0.0
                CHANNELS 3 Zrotation Xrotation Yrotation
                JOINT LeftArm
                {
                    OFFSET 0.0 -10.0 0.0
                    CHANNELS 3 Zrotation Xrotation Yrotation
                    JOINT LeftForeArm
                    {
                        OFFSET 0.0 -10.0 0.0
                        CHANNELS 3 Zrotation Xrotation Yrotation
                        End Site
                        {
                            OFFSET 0.0 -3.0 0.0
                        }
                    }
                }
            }
        }
    }
}

MOTION
Frames: 37
Frame Time: 0.033333
960.000000 445.000000 104.244430 0.000000 0.000000 0.000000 0.000000 0.000000 0.000000 23.025492 -25.703867 0.000000 180.000000 12.453632 0.000000 21.801409 0.711122 -0.000000 158.198591 14.480164 30.000000 15.945396 -4.599553 0.000000 18.000000 -0.103196 0.000000
1691.525230 140.756605 83.416302 0.000000 0.000000 0.000000 0.000000 0.000000 0.000000 -163.376529 -13.203487 4.973798 16.623471 1.355292 4.973798 -171.853121 -3.381796 3.759997 99.744051 3.557770 29.763441 -171.126653 -3.599209 -3.759997 0.673538 0.452107 0.313953
1636.048050 128.802021 116.250205 0.000000 0.000000 0.000000 0.000000 0.000000 0.000000 157.904128 26.407495 9.635073 -22.095872 -7.369787 9.635073 -171.936471 -3.820480 7.460697 -143.675701 -0.250704 29.057495 -173.500805 -4.288273 -7.460697 0.570999 0.414007 0.626666
1578.156967 80.474526 114.779342 0.000000 0.000000 0.000000 0.000000 0.000000 0.000000 -139.519796 -6.524374 13.690942 40.480204 -2.464811 13.690942 -174.507724 -3.930347 11.043737 119.111399 0.261168 27.893295 -173.607258 -4.351210 -11.043737 0.461920 0.423214 0.936907
960.418757 444.998421 117.863683 0.000000 0.000000 0.000000 0.000000 0.000000 0.000000 25.077893 4.681681 16.886559 180.000000 11.459693 16.886559 23.861935 1.872311 14.452610 156.138065 -3.479703 26.289200 17.903699 1.090481 -14.452610 18.000000 0.038839 1.243449
960.523360 444.997533 119.213104 0.000000 0.000000 0.000000 0.000000 0.000000 0.000000 25.638906 13.610167 19.021130 180.000000 -10.719387 19.021130 24.425035 -1.823909 17.633558 155.574965 -2.289372 24.270510 18.452907 4.585106 -17.633558 18.000000 0.306204 1.545085
960.627905 444.996447 129.834976 0.000000 0.000000 0.000000 0.000000 0.000000 0.000000 26.219073 4.793977 19.960535 180.000000 -12.087469 19.960535 25.006291 16.099562 20.536413 154.993709 9.588359 21.869059 19.024920 -7.123495 -20.536413 18.000000 0.164931 1.840623
1126.242828 420.359820 124.192817 0.000000 0.000000 0.000000 0.000000 0.000000 0.000000 31.410514 1.069006 19.645745 -148.589486 -3.446961 19.645745 32.280463 -0.429724 23.115397 -131.603972 1.509648 19.122720 45.585331 -1.943835 -23.115397 -13.449727 -0.128828 2.128896
1257.895088 650.549197 134.801993 0.000000 0.000000 0.000000 0.000000 0.000000 0.000000 25.073180 0.937683 18.096541 -154.926820 -0.742240 18.096541 46.260945 13.092375 25.329838 -154.651428 -5.482485 16.074804 27.339487 5.281632 -25.329838 -13.619892 0.287275 2.408768
960.941083 444.992008 120.376562 0.000000 0.000000 0.000000 0.000000 0.000000 0.000000 28.072001 2.250252 15.410265 180.000000 3.359506 15.410265 26.849221 -1.680917 27.144812 153.150779 6.787459 12.773379 20.864045 -0.969337 -27.144812 18.000000 -0.762673 2.679134
1163.815842 547.748709 131.290025 0.000000 0.000000 0.000000 0.000000 0.000000 0.000000 117.162728 -1.407888 11.755705 -62.837272 -6.819890 11.755705 102.363764 3.216845 28.531695 -47.376450 3.581901 9.270510 104.768601 -3.681049 -28.531695 -6.003489 -0.210813 2.938926
961.149372 444.988063 145.838224 0.000000 0.000000 0.000000 0.000000 0.000000 0.000000 29.395983 14.880937 7.362491 180.000000 -6.933510 7.362491 28.146217 2.802677 29.468618 151.853783 2.358757 5.621439 22.170006 -1.702220 -29.468618 18.000000 -0.158206 3.187120
1136.717377 590.104480 138.355800 0.000000 0.000000 0.000000 0.000000 0.000000 0.000000 115.752126 -5.419605 2.506665 -64.247874 8.724497 2.506665 73.638146 -1.625052 29.940802 -21.842452 2.914864 1.883716 75.369282 0.063438 -29.940802 -6.767207 0.890053 3.422736
1163.079758 634.077559 144.586654 0.000000 0.000000 0.000000 0.000000 0.000000 0.000000 132.174340 5.787929 -2.506665 -47.825660 -3.899984 -2.506665 94.255711 3.260038 29.940802 -149.364979 -7.394997 -1.883716 30.021641 5.294385 -29.940802 -5.096180 0.734464 3.644843
961.460830 444.980668 144.151388 0.000000 0.000000 0.000000 0.000000 0.000000 0.000000 31.497152 -1.413903 -7.362491 180.000000 -21.252473 -7.362491 30.152455 17.608829 29.468618 149.847545 -5.778166 -5.621439 24.175589 14.179238 -29.468618 18.000000 -1.224541 3.852566
1097.449951 565.089898 158.067380 0.000000 0.000000 0.000000 0.000000 0.000000 0.000000 -119.219568 -3.727400 -11.755705 60.780432 0.602021 -11.755705 -150.180642 -6.484254 28.531695 48.804955 4.915426 -9.270510 -149.874178 -6.801712 -28.531695 2.713854 0.572318 4.045085
1114.140244 528.302071 166.901512 0.000000 0.000000 0.000000 0.000000 0.000000 0.000000 -142.671523 -4.708403 -15.410265 37.328477 -0.385865 -15.410265 -177.395681 0.360804 27.144812 34.687329 3.105443 -12.773379 161.894167 -6.991054 -27.144812 -0.910956 0.342190 4.221640
1116.433640 479.728639 168.648327 0.000000 0.000000 0.000000 0.000000 0.000000 0.000000 -102.267481 15.615663 -18.096541 77.732519 -14.013613 -18.096541 -163.695626 3.621826 25.329838 38.575767 -0.044534 -16.074804 -176.001122 -2.620039 -25.329838 0.706594 -0.213814 4.381533
1135.931282 466.493965 131.447767 0.000000 0.000000 0.000000 0.000000 0.000000 0.000000 -112.868406 9.497775 -19.645745 67.131594 -11.315702 -19.645745 -159.517862 2.360761 23.115397 36.204678 -4.993498 -19.122720 -154.426613 -5.403571 -23.115397 2.428729 0.559262 4.524135
1141.618767 467.420679 141.487861 0.000000 0.000000 0.000000 0.000000 0.000000 0.000000 -123.086385 -0.479339 -19.960535 56.913615 -15.076336 -19.960535 -154.885724 4.285277 20.536413 36.481623 -4.675827 -21.869059 -153.965441 -5.387358 -20.536413 2.446728 0.521694 4.648882
1150.647926 469.370956 145.074032 0.000000 0.000000 0.000000 0.000000 0.000000 0.000000 -43.953779 6.505410 -19.021130 136.046221 -1.353054 -19.021130 -154.327268 -6.927514 17.633558 60.745168 2.986108 -24.270510 -153.350642 -6.726400 -17.633558 2.386216 0.616918 4.755283
1151.529922 496.420240 148.362342 0.000000 0.000000 0.000000 0.000000 0.000000 0.000000 -116.362129 7.697063 -16.886559 63.637871 -9.137306 -16.886559 -149.081043 5.881609 14.452610 35.941860 -3.332261 -26.289200 -156.847177 -0.363755 -14.452610 2.056513 0.170625 4.842916
1148.402367 515.713574 141.597205 0.000000 0.000000 0.000000 0.000000 0.000000 0.000000 -118.252650 5.843563 -13.690942 61.747350 -0.729475 -13.690942 -138.082896 -3.972379 11.043737 -156.312677 -7.366377 -27.893295 21.649626 9.961836 -11.043737 2.962417 -0.118526 4.911436
1175.363617 533.368646 131.419357 0.000000 0.000000 0.000000 0.000000 0.000000 0.000000 -95.476638 -1.032042 -9.635073 84.523362 15.236480 -9.635073 -113.907461 -3.603649 7.460697 -155.995907 -5.890343 -29.057495 12.512064 9.327583 -7.460697 -16.748794 -0.932758 4.960574
1199.533310 485.991104 134.780748 0.000000 0.000000 0.000000 0.000000 0.000000 0.000000 -100.003195 -0.918938 -4.973798 79.996805 -9.465013 -4.973798 -86.083188 5.108095 3.759997 38.843754 -2.949148 -29.763441 -106.539452 2.109943 -3.759997 6.197806 -0.067891 4.990134
962.588190 444.938442 127.280498 0.000000 0.000000 0.000000 0.000000 0.000000 0.000000 39.579754 37.418769 -0.000000 180.000000 -26.630928 -0.000000 36.680773 3.221360 0.000000 143.319227 -9.579670 -30.000000 29.388385 -5.771834 -0.000000 18.000000 0.411221 5.000000
1142.094727 445.716287 142.849676 0.000000 0.000000 0.000000 0.000000 0.000000 0.000000 -140.228454 57.135058 4.973798 39.771546 -35.703672 4.973798 -156.118008 -5.682919 -3.759997 3.479189 -8.237182 -29.763441 -158.005660 -5.576840 3.759997 2.150019 0.529621 4.990134
1164.005928 424.847746 109.606655 0.000000 0.000000 0.000000 0.000000 0.000000 0.000000 -84.241076 -15.580192 9.635073 95.758924 -9.583915 9.635073 -156.181584 -5.254859 -7.460697 166.928360 -3.430736 -29.057495 -154.947270 -5.537458 7.460697 2.644196 0.683552 4.960574
1124.208755 418.286655 112.735313 0.000000 0.000000 0.000000 0.000000 0.000000 0.000000 -117.427077 -16.061083 13.690942 62.572923 14.756780 13.690942 -155.943063 -6.033991 -11.043737 14.023837 -0.831495 -27.893295 -157.382674 -5.441045 11.043737 2.188130 0.524449 4.911436
962.990408 444.917226 108.942787 0.000000 0.000000 0.000000 0.000000 0.000000 0.000000 42.110883 15.040940 16.886559 180.000000 -33.268136 16.886559 37.946959 15.175833 -14.452610 142.053041 -6.449035 -26.289200 29.293612 -6.688094 14.452610 18.000000 0.101534 4.842916
963.090170 444.911436 107.030969 0.000000 0.000000 0.000000 0.000000 0.000000 0.000000 42.659200 -24.033174 19.021130 180.000000 -20.156703 19.021130 38.119107 25.750149 -17.633558 141.880893 13.926575 -24.270510 29.068887 -0.667988 17.633558 18.000000 0.764673 4.755283
1186.646461 396.272757 98.567155 0.000000 0.000000 0.000000 0.000000 0.000000 0.000000 -72.847419 8.204557 19.960535 107.152581 20.699694 19.960535 -156.703603 -5.022825 -20.536413 178.447294 10.061804 -21.869059 -157.212393 -5.250697 20.536413 1.964058 0.442360 4.648882
1313.051605 426.636125 86.397734 0.000000 0.000000 0.000000 0.000000 0.000000 0.000000 90.994869 3.478224 19.645745 -89.005131 10.616048 19.645745 -160.515303 -4.538725 -23.115397 -153.248861 -1.933140 -19.122720 -159.640525 -4.471434 23.115397 0.000000 0.000000 0.000000
1347.999344 420.772226 93.494005 0.000000 0.000000 0.000000 0.000000 0.000000 0.000000 90.154351 1.967506 18.096541 -89.845649 8.816901 18.096541 -162.053401 -4.408003 -25.329838 -136.198880 4.500037 -16.074804 -160.991694 -4.923361 25.329838 0.000000 0.000000 0.000000
1344.315948 421.031681 82.834546 0.000000 0.000000 0.000000 0.000000 0.000000 0.000000 69.757587 4.107180 15.410265 -110.242413 -8.686036 15.410265 25.616746 -3.840050 -27.144812 -157.821005 -4.018347 -12.773379 17.214985 2.811977 27.144812 -16.704706 0.130973 4.221640
1350.307617 440.309436 100.095750 0.000000 0.000000 0.000000 0.000000 0.000000 0.000000 71.124018 8.051994 11.755705 -108.875982 4.082893 11.755705 42.739987 -8.369212 -28.531695 -142.315466 1.629373 -9.270510 16.600926 -0.791990 28.531695 -16.660102 -0.241796 4.045085
1357.685051 430.688889 87.932692 0.000000 0.000000 0.000000 0.000000 0.000000 0.000000 77.656077 4.643093 7.362491 -102.343923 3.687881 7.362491 39.407151 -3.783772 -29.468618 -136.343173 3.020680 -5.621439 22.144452 -2.419768 29.468618 -16.305135 -0.008594 3.852566
